<svg xmlns="http://www.w3.org/2000/svg" width="138" height="57" viewBox="0 0 138 57">
    <g fill="none" fill-rule="evenodd">
        <g>
            <g fill="#0A1528">
                <path d="M22.497 45C10.094 45 0 34.903 0 22.5S10.091 0 22.497 0C34.906 0 45 10.097 45 22.5S34.903 45 22.497 45zM22.5 2.25c-11.171 0-20.25 9.085-20.25 20.25 0 11.164 9.085 20.25 20.25 20.25 11.164 0 20.25-9.086 20.25-20.25 0-11.165-9.079-20.25-20.25-20.25z" transform="translate(0 6)"/>
                <path d="M22.475 14.625c-8.392 0-14.848 2.823-17.975 8.309.134 1.675.558 3.287 1.217 4.789 4.424-2.31 12.866 6.481 10.21 10.395 2.102.722 4.135 1.257 6.511 1.257 2.326-.008 4.635-.385 6.837-1.116-2.66-3.913 5.526-12.52 9.979-10.161.695-1.568 1.117-3.24 1.246-4.944-3.16-5.43-9.688-8.529-18.025-8.529zm.595 11.25c-2.188 0-3.945-1.76-3.945-3.938 0-2.177 1.757-3.937 3.945-3.937 2.166 0 3.93 1.76 3.93 3.938 0 2.177-1.764 3.937-3.93 3.937z" transform="translate(0 6)"/>
            </g>
            <path fill-rule="nonzero" d="M0 0H45V45H0z" transform="translate(0 6)"/>
        </g>
        <text fill="#0A1528" font-family="DenkOne-Regular, Denk One" font-size="45">
            <tspan x="47" y="47"> Flight Search System</tspan>
        </text>
    </g>
</svg>
