<svg xmlns="http://www.w3.org/2000/svg" width="73" height="52" viewBox="0 0 73 52">
    <g fill="none" fill-rule="evenodd">
        <g fill-rule="nonzero">
            <g transform="translate(-331 -217) translate(331 217)">
                <path fill="#655E67" d="M31.59 21l-13.66-5.03c-3.124-1.15-4.712-4.585-3.549-7.672.09-.237.356-.357.596-.27l12.792 4.712c3.363 1.238 5.073 4.936 3.82 8.26z"/>
                <circle cx="13" cy="39" r="12" fill="#766D78"/>
                <circle cx="13" cy="39" r="7" fill="#FFF"/>
                <circle cx="60" cy="39" r="12" fill="#766D78"/>
                <path fill="#655E67" d="M13.11 27c-.72 0-1.425.068-2.11.192C16.559 28.198 20.779 33.1 20.779 39c0 5.9-4.22 10.802-9.779 11.808.685.124 1.39.192 2.11.192C19.678 51 25 45.627 25 39s-5.323-12-11.89-12zM60.05 27c-.7 0-1.383.064-2.05.18 5.622.976 9.9 5.895 9.9 11.82 0 5.925-4.278 10.844-9.9 11.82.667.116 1.35.18 2.05.18C66.65 51 72 45.627 72 39s-5.35-12-11.95-12z"/>
                <circle cx="60" cy="39" r="7" fill="#FFF"/>
                <path fill="#C8C3CA" d="M58.14 40.651L47.91 10.255 43 6.799 45.002 4l6.363 4.097 10.531 31.292c.35 1.042-.216 2.17-1.262 2.512-1.034.338-2.148-.22-2.494-1.25z"/>
                <circle cx="43.488" cy="4.607" r="3.247" fill="#C8C3CA" transform="rotate(-45 43.488 4.607)"/>
                <path fill="#B1ABB4" d="M14 38.611L24.28 21 30 24.975 19.945 42z"/>
                <path fill="#E3E0E4" d="M31.732 43L12 40.904V37.67l18.286-4.617c2.727-.402 5.261 1.498 5.66 4.245.4 2.746-1.487 5.299-4.214 5.701z"/>
                <path fill="#F7D958" d="M41.502 12.07c.296-.01.593-.011.891-.003 1.852.05 3.677.453 5.376 1.187l3.253 1.405 2.764-2.708c1.162-1.138 2.983-1.27 4.298-.312l4.94 3.601c2.52 1.836 2.651 5.534.267 7.542l-10.1 8.508c-2.842 2.395-4.482 5.913-4.482 9.619 0 1.707-1.39 3.091-3.107 3.091H29.443c-1.525 0-2.244-1.873-1.107-2.884l4.053-3.604c.353-.313.555-.761.555-1.232v-4.813c0-.597-.324-1.147-.846-1.44L9.153 17.172c-.182-.102-.206-.352-.048-.487 2.996-2.54 7.191-3.148 10.791-1.563l7.11 3.13c1.319.582 2.866.214 3.778-.898 2.65-3.226 6.562-5.142 10.718-5.284"/>
                <path fill="#F3C625" d="M63.084 15.24l-4.792-3.601c-1.211-.91-2.862-.836-3.99.146l4.597 3.454c2.444 1.837 2.571 5.534.259 7.542L49.36 31.29c-2.757 2.394-4.348 5.913-4.348 9.619C45.013 42.616 43.664 44 42 44h4.185c1.664 0 3.013-1.384 3.013-3.091 0-3.706 1.59-7.224 4.348-9.62l9.797-8.508c2.312-2.008 2.185-5.705-.259-7.542z"/>
                <path fill="#FFF" d="M63.11 15l-6.061 1.6c-2.89.764-2.66 5.113.294 5.54l5.942.86c2.363-2.143 2.265-5.986-.175-8z"/>
                <path fill="#E7E7E7" d="M62.993 15l-3.808.947c1.467 1.909 1.426 4.619-.185 6.484l4.18.569c2.508-2.143 2.404-5.986-.187-8z"/>
                <path fill="#000" d="M60.22 26.478l3.409-2.824c1.378-1.141 2.132-2.809 2.068-4.574-.063-1.766-.935-3.377-2.392-4.42l-4.898-3.51c-1.389-.996-3.185-1.086-4.634-.326l-.909-2.647c-.077-.225-.23-.417-.434-.546l-4.64-2.926C47.52 2.62 45.698 1 43.494 1c-2.389 0-4.332 1.901-4.332 4.238 0 2.336 1.943 4.237 4.332 4.237.401 0 .79-.055 1.16-.155l2.843 1.96.453 1.317c-1.811-.766-3.73-1.18-5.702-1.233-.585-.015-1.081.44-1.097 1.017-.016.578.45 1.059 1.04 1.075 1.706.045 3.366.405 4.932 1.07l3.225 1.37c.4.17.866.086 1.177-.213l2.74-2.64c.782-.754 1.993-.84 2.878-.206l3.224 2.31-3.601.895c-1.75.434-2.86 1.911-2.76 3.675.1 1.764 1.369 3.112 3.157 3.356l3.314.45-8.243 6.829c-1.247 1.033-2.278 2.26-3.062 3.617L47.586 31.4c-2.59-4.195-6.633-7.364-11.382-8.923l-3.378-1.108c-.56-.183-1.166.112-1.353.66-.188.547.113 1.14.674 1.324l3.377 1.108c4.27 1.401 7.903 4.25 10.231 8.021l2.358 3.819c-.46 1.346-.7 2.771-.7 4.226 0 1.085-.903 1.968-2.012 1.968h-2.695l2.212-2.165c.418-.409.418-1.071 0-1.48-.417-.408-1.094-.408-1.512 0l-3.68 3.6-.04.045h-2.74l2.212-2.165c.417-.409.417-1.071 0-1.48-.418-.408-1.095-.408-1.513 0l-3.68 3.6-.04.045H29.38c-.358 0-.496-.255-.539-.364-.042-.109-.113-.388.155-.622l4.018-3.513c.576-.503.906-1.226.906-1.981v-4.693c0-.958-.53-1.845-1.383-2.315L10.822 17.043c2.55-1.631 5.837-1.921 8.662-.698l7.048 3.052c1.743.755 3.801.273 5.007-1.17 1.61-1.929 3.74-3.358 6.16-4.132.561-.18.867-.77.684-1.32-.184-.549-.787-.848-1.349-.669-2.127.681-4.06 1.798-5.685 3.271-.864-1.311-2.13-2.312-3.651-2.867L15.153 7.938c-.381-.14-.795-.124-1.165.04-.37.167-.652.463-.794.836l-.159.416c-.574 1.51-.547 3.136.053 4.6-1.656.402-3.225 1.171-4.563 2.286-.34.283-.516.712-.473 1.146.043.435.3.822.69 1.036l12.003 6.613-1.708 2.935c-1.824-.898-3.863-1.372-5.92-1.372-1.314 0-2.612.19-3.858.561-.565.17-.882.754-.71 1.307.173.552.771.863 1.335.694 1.043-.311 2.13-.47 3.233-.47 1.687 0 3.358.38 4.86 1.101l-1.512 2.6c-1.042-.474-2.19-.725-3.348-.725-4.36 0-7.906 3.452-7.906 7.695s3.547 7.695 7.906 7.695c2.79 0 5.375-1.437 6.798-3.766l3.267.338c-1.733 3.86-5.683 6.404-10.065 6.404-6.054 0-10.978-4.787-10.978-10.671 0-3.365 1.663-6.573 4.449-8.58.476-.342.577-.997.227-1.462-.35-.465-1.02-.565-1.495-.222C1.99 31.372 0 35.209 0 39.237 0 46.275 5.884 52 13.117 52c5.461 0 10.36-3.313 12.277-8.268l2.15.222.079.004c.478.398 1.094.63 1.759.63h16.02c.841 0 1.624-.248 2.28-.67.832 2.046 2.207 3.877 3.986 5.27C53.986 51 56.903 52 59.883 52 67.116 52 73 46.275 73 39.237c0-6.928-5.703-12.584-12.78-12.759zM41.3 5.238c0-1.183.984-2.145 2.193-2.145s2.192.962 2.192 2.145-.983 2.145-2.192 2.145c-1.21 0-2.193-.962-2.193-2.145zm9.271 8.425l-1.16-3.374c-.072-.211-.21-.394-.397-.522l-2.366-1.63c.326-.34.595-.732.793-1.161l3.514 2.215 1.059 3.082-1.443 1.39zM14.986 10.11l11.965 4.36c1.255.458 2.265 1.342 2.87 2.501-.605.662-1.587.875-2.423.513l-7.049-3.052c-1.61-.698-3.344-.996-5.053-.918-.583-1.05-.695-2.27-.31-3.404zM31.59 36.436l-4.018 3.513c-.548.479-.86 1.13-.903 1.81l-12.567-1.297V39.11l17.251-4.232c.143-.018.286-.03.43-.032v1.169c0 .16-.07.314-.193.421zm.192-5.114v1.433c-.263.003-.527.022-.788.06-.036.005-.07.012-.105.02l-5.177 1.27 2.845-4.89 2.932 1.616c.18.1.293.288.293.491zm-5.088-3.133l-3.853 6.62-6.293 1.544 6.06-10.415 4.086 2.25zm-13.577 16.65c-3.18 0-5.768-2.513-5.768-5.602 0-3.09 2.588-5.603 5.768-5.603.787 0 1.567.16 2.284.46l-1.724 2.963-.904.221c-.476.117-.81.535-.81 1.015v3.11c0 .536.413.985.958 1.041l4.546.47c-1.084 1.208-2.665 1.926-4.35 1.926zm44.515-16.217l3.725 10.839c.078.226.06.469-.05.683-.11.214-.298.372-.53.447-.473.15-.987-.101-1.145-.563L56.138 29.86l1.494-1.238zm-1.874 6.7l1.846 5.373c.427 1.242 1.622 2.032 2.896 2.032.313 0 .63-.048.942-.148.778-.249 1.41-.78 1.777-1.497.367-.716.426-1.528.165-2.288l-1.674-4.872c2.308.748 3.94 2.87 3.94 5.315 0 3.09-2.587 5.603-5.767 5.603s-5.767-2.514-5.767-5.603c0-1.491.59-2.876 1.642-3.915zm.384-15.72c-.034-.594.25-1.309 1.15-1.532l5.24-1.301c.628.639.995 1.48 1.028 2.385.034.95-.306 1.853-.942 2.548L57.458 21c-.92-.125-1.283-.804-1.316-1.398zm3.741 30.306c-2.532 0-4.91-.814-6.879-2.354-1.82-1.425-3.134-3.392-3.73-5.57.178-.452.277-.943.277-1.456 0-1.353.247-2.675.716-3.911.015-.034.029-.068.04-.104.683-1.749 1.81-3.323 3.309-4.564l.765-.634.639 1.859c-1.908 1.453-3.043 3.701-3.043 6.063 0 4.243 3.547 7.695 7.906 7.695 4.36 0 7.906-3.452 7.906-7.695 0-3.856-2.953-7.131-6.874-7.63l-1.045-3.04h.013c6.053 0 10.978 4.787 10.978 10.67 0 5.884-4.924 10.67-10.978 10.67z"/>
            </g>
        </g>
    </g>
</svg>
