<svg xmlns="http://www.w3.org/2000/svg" width="82" height="45" viewBox="0 0 82 45">
    <g fill="none" fill-rule="evenodd">
        <g fill-rule="nonzero">
            <g transform="translate(-499 -220) translate(499 220)">
                <path fill="#F8E076" d="M80 23.57c0-3.227-2.62-5.844-5.855-5.848l-6.889-.007c-.998-.001-1.947-.432-2.603-1.181L52.083 2.186C50.897.799 49.161 0 47.333 0H28.19c-1.99 0-3.86.946-5.037 2.547l-5.916 14.706-7.446-.079c-1.808-.03-3.556.763-4.643 2.204-.283.375-.52.787-.704 1.23-.288.699-.444 1.459-.444 2.245v7.249C4 33.359 6.646 36 9.91 36H80V23.57z"/>
                <path fill="#E27F86" d="M10 24.817v-1.634C10 21.977 8.93 21 7.611 21H3.186c-.122.433-.186.883-.186 1.344V27h4.611C8.931 27 10 26.023 10 24.817z"/>
                <path fill="#FFF" d="M22 18l4.619-11.565c.265-.274.65-.435 1.053-.435h25.283l10.38 10.875c.672.704 1.644 1.109 2.665 1.11L22 18z"/>
                <path fill="#F7D958" d="M10.982 17.04l.018-.05-2.312-.029c-.231-.004-.461.012-.688.042l2.982.036zM74.06 17.722l-6.991-.007c-1.013-.001-1.975-.432-2.642-1.181L51.673 2.186C50.47.799 48.708 0 46.854 0H42c1.854 0 3.615.799 4.82 2.186l12.753 14.348c.667.75 1.63 1.18 2.642 1.18l6.99.008c3.282.004 5.94 2.621 5.94 5.849V36H80V23.57c0-3.227-2.659-5.844-5.94-5.848z"/>
                <path fill="#E7E7E7" d="M63.326 16.889L52.913 6H48l10.414 10.889c.674.705 1.649 1.11 2.673 1.111H66c-1.025-.001-2-.406-2.674-1.111z"/>
                <path fill="#FFF" d="M79 25v-1.396c0-3.092-2.66-5.599-5.944-5.602L71 18v3.766C71 23.552 72.538 25 74.435 25H79z"/>
                <path fill="#C8C3CA" d="M80.222 37H1.778c-.43 0-.778-.403-.778-.9v-4.2c0-.497.348-.9.778-.9h78.444c.43 0 .778.403.778.9v4.2c0 .497-.348.9-.778.9z"/>
                <circle cx="61" cy="36" r="8" fill="#8C818F"/>
                <circle cx="61" cy="37" r="3" fill="#C8C3CA"/>
                <circle cx="20" cy="36" r="8" fill="#8C818F"/>
                <circle cx="20" cy="37" r="3" fill="#C8C3CA"/>
                <path fill="#766D78" d="M60.322 28c-.81 0-1.59.131-2.322.373 3.105 1.026 5.356 4.052 5.356 7.627s-2.25 6.601-5.356 7.627c.733.242 1.513.373 2.322.373C64.562 44 68 40.418 68 36s-3.437-8-7.678-8zM19.322 28c-.81 0-1.59.131-2.322.373 3.105 1.026 5.356 4.052 5.356 7.627S20.105 42.601 17 43.627c.733.242 1.513.373 2.322.373C23.562 44 27 40.418 27 36s-3.438-8-7.678-8z"/>
                <path fill="#000" d="M80.367 31.656v-7.688c0-3.754-3.176-6.811-7.08-6.815l-6.92-.007c-.656 0-1.28-.274-1.711-.749L52.04 2.521C50.619.919 48.547 0 46.357 0h-9.6c-.663 0-1.201.517-1.201 1.155s.538 1.155 1.201 1.155h9.6c1.486 0 2.892.624 3.866 1.721l.698.768h-22.16c-.739 0-1.443.305-1.933.837-.1.108-.177.234-.229.37L22.067 17.92c-.135.354-.08.75.144 1.059.225.309.592.493.984.493l16.604-.006v12.16H27.16c-1.619-2.474-4.49-4.123-7.757-4.123-3.268 0-6.14 1.65-7.757 4.125l-.06-.003H4.243c-.137-.43-.208-.878-.208-1.335v-.959h3.413c1.98 0 3.592-1.55 3.592-3.453v-1.72c0-1.905-1.611-3.455-3.592-3.455H4.875c.024-.032.046-.065.071-.097.84-1.072 2.214-1.7 3.692-1.673l7.479.076h.013c.49 0 .931-.286 1.114-.724l5.882-14.092c.956-1.181 2.442-1.883 4.003-1.883h4.823c.664 0 1.202-.517 1.202-1.155S32.616 0 31.952 0H27.13c-2.371 0-4.624 1.098-6.027 2.938-.06.078-5.781 13.753-5.781 13.753l-6.65-.068c-2.238-.037-4.344.933-5.644 2.594-.35.446-.638.932-.857 1.445-.356.832-.537 1.71-.537 2.612v7.016c0 .456.047.905.138 1.345-.993.099-1.771.908-1.771 1.89v3.471c0 1.048.886 1.9 1.975 1.9h8.71C11.86 42.43 15.324 45 19.403 45c4.08 0 7.542-2.569 8.717-6.104h10.633c.664 0 1.201-.517 1.201-1.155s-.537-1.156-1.2-1.156H28.537c.004-.11.008-.221.008-.333 0-.802-.115-1.578-.327-2.317h23.503c-.212.739-.327 1.515-.327 2.317 0 .112.004.223.008.333h-7.846c-.664 0-1.201.518-1.201 1.156 0 .638.537 1.155 1.2 1.155h8.111c.052 0 .102-.004.152-.01 1.17 3.54 4.637 6.114 8.72 6.114 4.079 0 7.542-2.569 8.716-6.104h10.77c1.089 0 1.975-.852 1.975-1.9v-3.471c0-.935-.707-1.713-1.633-1.87zm-71.73-7.499v1.72c0 .631-.533 1.144-1.189 1.144H4.035v-3.747c0-.087.004-.174.009-.26h3.404c.656 0 1.19.513 1.19 1.143zM2.402 36.585v-2.65h8.184c-.213.739-.328 1.515-.328 2.317 0 .112.004.223.009.333H2.402zm17 6.105c-3.222 0-5.922-2.17-6.585-5.06-.008-.08-.024-.158-.048-.233-.07-.372-.109-.754-.109-1.145 0-3.55 3.024-6.438 6.742-6.438s6.742 2.888 6.742 6.438-3.024 6.438-6.742 6.438zm58.563-18.722v.256H74.65c-1.211 0-2.197-.947-2.197-2.112v-2.65l.832.001c2.58.003 4.68 2.024 4.68 4.505zm-15.818-6.82l-19.946.007V7.109h10.764l.054-.002 9.128 10.04zm-37.233.013l3.822-10.05.024-.002H39.8v10.046l-14.885.006zm17.287 14.464v-12.16l27.85-.005v2.651c0 2.44 2.063 4.424 4.6 4.424h3.314v5.09H68.34l-.044.002c-1.617-2.474-4.489-4.124-7.757-4.124-3.267 0-6.138 1.65-7.756 4.122H42.201zM60.54 42.69c-3.718 0-6.742-2.888-6.742-6.438s3.024-6.438 6.742-6.438 6.742 2.888 6.742 6.438-3.025 6.438-6.742 6.438zm19.059-6.105h-9.924c.005-.11.01-.221.01-.333 0-.802-.116-1.578-.329-2.317h10.243v2.65z"/>
                <path fill="#000" d="M60 31c-2.205 0-4 1.794-4 4s1.794 4 4 4 4-1.794 4-4-1.795-4-4-4zm0 5.58c-.877 0-1.59-.709-1.59-1.58 0-.872.713-1.58 1.59-1.58.877 0 1.59.708 1.59 1.58 0 .871-.713 1.58-1.59 1.58zM20 31c-2.206 0-4 1.794-4 4s1.794 4 4 4c2.205 0 4-1.794 4-4s-1.795-4-4-4zm0 5.58c-.877 0-1.59-.709-1.59-1.58 0-.872.713-1.58 1.59-1.58.877 0 1.59.708 1.59 1.58 0 .871-.713 1.58-1.59 1.58zM47.878 20h-1.756c-.62 0-1.122.448-1.122 1s.503 1 1.122 1h1.756c.62 0 1.122-.448 1.122-1s-.503-1-1.122-1zM25.878 22c.62 0 1.122-.448 1.122-1s-.503-1-1.122-1h-1.756c-.62 0-1.122.448-1.122 1s.503 1 1.122 1h1.756z"/>
            </g>
        </g>
    </g>
</svg>
