<svg xmlns="http://www.w3.org/2000/svg" width="75" height="51" viewBox="0 0 75 51">
    <g fill="none" fill-rule="evenodd">
        <g fill-rule="nonzero">
            <g transform="translate(-643 -220) translate(643 220)">
                <path fill="#FBFBFB" d="M74 32.05c0-4.586-.63-9.15-1.874-13.57l-2.52-8.954C69.02 7.442 67.096 6 64.903 6H4.046C2.364 6 1 7.345 1 9.004V37h73v-4.95z"/>
                <path fill="#E7E7E7" d="M72.057 18.48l-2.613-8.954C68.836 7.442 66.842 6 64.568 6H60c2.274 0 4.268 1.442 4.876 3.526l2.613 8.954c1.289 4.42 1.943 8.984 1.943 13.57V37H74v-4.95c0-4.586-.654-9.15-1.943-13.57z"/>
                <path fill="#8C818F" d="M69.026 37H74v-3.705c0-3.8-.393-7.587-1.166-11.295-3.613 3.298-5.558 8.89-4.584 13.75.241.43.502.845.776 1.25z"/>
                <path fill="#C8C3CA" d="M62 30h-5V16h1.096C60.252 16 62 17.848 62 20.127V30z"/>
                <path fill="#F7D958" d="M74 35.924l-14.676-9.128c-.837-.52-1.8-.796-2.782-.796H1v12h73v-2.076zM70 12l-.54-2.117C68.875 7.588 66.956 6 64.767 6H4.04C2.36 6 1 7.481 1 9.308V12h69z"/>
                <path fill="#C8C3CA" d="M74 39H1v3.115c0 .489.442.885.987.885H72.2c.994 0 1.8-.723 1.8-1.614V39z"/>
                <circle cx="55.5" cy="42.5" r="7.5" fill="#8C818F"/>
                <circle cx="55.5" cy="43.5" r="2.5" fill="#C8C3CA"/>
                <circle cx="17.5" cy="42.5" r="7.5" fill="#8C818F"/>
                <circle cx="17.5" cy="43.5" r="2.5" fill="#C8C3CA"/>
                <path fill="#A29AA5" d="M63 6H41l1.086-3.728C42.305 1.52 43.016 1 43.827 1h16.346c.81 0 1.522.52 1.741 1.272L63 6z"/>
                <path fill="#F3C625" d="M69.46 9.883C68.875 7.588 66.955 6 64.767 6h-3.184c1.828.346 3.347 1.807 3.857 3.804l.54 2.117H1V12h69l-.54-2.117z"/>
                <path fill="#766D78" d="M56.111 35c-.737 0-1.446.127-2.111.36 2.772.97 4.778 3.8 4.778 7.14S56.772 48.67 54 49.64c.665.233 1.374.36 2.111.36C59.916 50 63 46.642 63 42.5c0-4.142-3.084-7.5-6.889-7.5zM17.111 35c-.737 0-1.446.127-2.111.36 2.772.97 4.778 3.8 4.778 7.14S17.772 48.67 15 49.64c.665.233 1.374.36 2.111.36C20.916 50 24 46.642 24 42.5c0-4.142-3.084-7.5-6.889-7.5z"/>
                <path fill="#8C818F" d="M61.95 2.272C61.738 1.52 61.05 1 60.267 1H56c.784 0 1.472.52 1.684 1.272L58.734 6H63l-1.05-3.728z"/>
                <path fill="#000" d="M73.091 18.854l-2.513-9.185c-.714-2.61-3.078-4.432-5.75-4.432h-.644l-.856-3.091C62.978.882 61.83 0 60.536 0H44.262c-1.294 0-2.442.882-2.792 2.146l-.856 3.091H32.27c-.607 0-1.098.499-1.098 1.114 0 .615.491 1.114 1.098 1.114H64.83c1.687 0 3.18 1.152 3.632 2.8l.153.56H2.197V9.431c0-1.085.87-1.967 1.94-1.967h23.74c.606 0 1.098-.499 1.098-1.114 0-.615-.492-1.114-1.098-1.114H4.137C1.855 5.237 0 7.119 0 9.432V41.66c0 1.164.934 2.112 2.083 2.112h6.99C9.616 47.846 13.083 51 17.268 51c4.185 0 7.652-3.153 8.193-7.228h21.955C47.957 47.846 51.423 51 55.608 51s7.652-3.153 8.194-7.228h8.304c1.596 0 2.894-1.317 2.894-2.935V33.07c0-4.804-.642-9.586-1.909-14.215zM43.585 2.748c.085-.306.363-.52.677-.52h16.275c.313 0 .591.214.676.52l.69 2.489H42.895l.69-2.489zm18.148 34.31c-.905-1.006-2.05-1.788-3.343-2.256v-7.07c.193.09 14.413 8.957 14.413 8.957v.343H61.967c-.08 0-.159.01-.234.026zm-12.225-.026H32.271c-.607 0-1.098.5-1.098 1.114 0 .616.491 1.114 1.098 1.114H48.06c-.317.715-.537 1.48-.644 2.284H25.46c-.106-.803-.326-1.57-.643-2.284h3.06c.606 0 1.098-.498 1.098-1.114 0-.615-.492-1.114-1.098-1.114h-4.263c-.077 0-.152.008-.225.024-1.514-1.683-3.698-2.74-6.122-2.74-2.413 0-4.588 1.048-6.1 2.716h-8.97v-9.794h53.996v7.1c-.193-.013-.388-.023-.584-.023-2.413 0-4.588 1.049-6.1 2.717zm11.809-10.137l-1.21-.756c-.54-.338-1.117-.601-1.717-.79v-7.644h.065c1.578 0 2.862 1.302 2.862 2.902v6.288zm-5.124-1.885h-8.304V13.053h8.304V25.01zm-10.501 0h-9.39V13.053h9.39V25.01zm-11.588 0h-9.391V13.053h9.39V25.01zm-11.588 0h-9.391V13.053h9.39V25.01zm-11.589 0h-8.73V13.053h8.73V25.01zm61.876 8.06v1.001l-3.824-2.39c.27-2.686 1.38-5.344 3.066-7.415.503 2.904.758 5.85.758 8.803zm-1.83-13.62c.194.706.37 1.416.533 2.13-2.352 2.29-4.004 5.498-4.573 8.824l-3.419-2.136v-7.66c0-2.83-2.27-5.132-5.06-5.132h-.064v-2.423h10.833l1.75 6.397zM2.198 39.26h7.52c-.317.715-.537 1.48-.643 2.284H2.197V39.26zm15.07 9.512c-3.348 0-6.072-2.743-6.072-6.114 0-3.372 2.724-6.115 6.072-6.115s6.072 2.743 6.072 6.115c0 3.37-2.724 6.114-6.072 6.114zm38.342 0c-3.349 0-6.073-2.743-6.073-6.114 0-3.372 2.724-6.115 6.073-6.115 3.348 0 6.072 2.743 6.072 6.115 0 3.37-2.724 6.114-6.072 6.114zm17.194-7.935c0 .39-.312.707-.696.707h-8.305c-.107-.803-.327-1.57-.644-2.284h9.645v1.577z"/>
                <path fill="#000" d="M55.5 39c-1.93 0-3.5 1.57-3.5 3.5s1.57 3.5 3.5 3.5 3.5-1.57 3.5-3.5-1.57-3.5-3.5-3.5zm0 4.863c-.757 0-1.372-.611-1.372-1.363s.615-1.363 1.372-1.363c.757 0 1.372.611 1.372 1.363s-.615 1.363-1.372 1.363zM17.5 39c-1.93 0-3.5 1.57-3.5 3.5s1.57 3.5 3.5 3.5 3.5-1.57 3.5-3.5-1.57-3.5-3.5-3.5zm0 4.863c-.757 0-1.372-.611-1.372-1.363s.615-1.363 1.372-1.363c.757 0 1.372.611 1.372 1.363s-.615 1.363-1.372 1.363z"/>
            </g>
        </g>
    </g>
</svg>
